<svg t="1678523629552" class="icon" viewBox="0 0 1024 1024" version="1.1" xmlns="http://www.w3.org/2000/svg" p-id="4455" width="128" height="128"><path d="M554.93 359.35m20 0l130 0q20 0 20 20l0 0q0 20-20 20l-130 0q-20 0-20-20l0 0q0-20 20-20Z" p-id="4456"></path><path d="M554.93 496.39m20 0l180 0q20 0 20 20l0 0q0 20-20 20l-180 0q-20 0-20-20l0 0q0-20 20-20Z" p-id="4457"></path><path d="M554.93 633.43m20 0l260 0q20 0 20 20l0 0q0 20-20 20l-260 0q-20 0-20-20l0 0q0-20 20-20Z" p-id="4458"></path><path d="M328.5 496.85a90 90 0 1 1 90-90 90.1 90.1 0 0 1-90 90z m0-140a50 50 0 1 0 50 50 50.06 50.06 0 0 0-50-50zM468.5 707.15h-280a20 20 0 0 1-20-20c0-88.23 71.77-160 160-160s160 71.77 160 160a20 20 0 0 1-20 20z m-258.34-40h236.67a120 120 0 0 0-236.67 0z" p-id="4459"></path><path d="M859.72 202.93a60.3 60.3 0 0 1 60 60v498.14a60.3 60.3 0 0 1-60 60h-696a60.28 60.28 0 0 1-60-60V262.93a60.28 60.28 0 0 1 60-60h696m0-40h-696c-55 0-100 45-100 100v498.14c0 55 45 100 100 100h696c55 0 100-45 100-100V262.93c0-55-45-100-100-100z" p-id="4460"></path></svg>